<svg xmlns="http://www.w3.org/2000/svg" version="1.1" xmlns:xlink="http://www.w3.org/1999/xlink" xmlns:svgjs="http://svgjs.dev/svgjs" width="2000" height="424" viewBox="0 0 2000 424"><g transform="matrix(1,0,0,1,-1.2121174125701373,-0.836980705466317)"><svg viewBox="0 0 396 84" data-background-color="#ffffff" preserveAspectRatio="xMidYMid meet" height="424" width="2000" xmlns="http://www.w3.org/2000/svg" xmlns:xlink="http://www.w3.org/1999/xlink"><g id="tight-bounds" transform="matrix(1,0,0,1,0.24000075231117535,0.16581693221502292)"><svg viewBox="0 0 395.52 83.66836613556995" height="83.66836613556995" width="395.52"><g><svg viewBox="0 0 492.43386390867573 104.16954091591957" height="83.66836613556995" width="395.52"><g><rect width="6.797479524431152" height="75.75281376302398" x="72.32193536740913" y="14.208363576447795" fill="#ffffff" opacity="1" stroke-width="0" stroke="transparent" fill-opacity="1" class="rect-o-0" data-fill-palette-color="primary" rx="1%" id="o-0" data-palette-color="#000000"></rect></g><g transform="matrix(1,0,0,1,96.91386390867575,14.396803411679194)"><svg viewBox="0 0 395.52 75.37593409256118" height="75.37593409256118" width="395.52"><g id="textblocktransform"><svg viewBox="0 0 395.52 75.37593409256118" height="75.37593409256118" width="395.52" id="textblock"><g><svg viewBox="0 0 395.52 75.37593409256118" height="75.37593409256118" width="395.52"><g transform="matrix(1,0,0,1,0,0)"><svg width="395.52" viewBox="1.7599999904632568 -38.400001525878906 199.82000732421875 38.400001525878906" height="75.37593409256118" data-palette-color="#000000"><g class="undefined-text-0" data-fill-palette-color="primary" id="text-0"><path d="M20.24-14.48L19.51-17.07 10.06-17.07 10.06-2.64 15.6-2.08 15.6 0 1.76 0 1.76-2.08 5.47-2.64 5.47-34.18 1.76-34.74 1.76-36.82 26.61-36.82 27.17-29.57 25.02-29.57 23.71-33.86 10.06-33.86 10.06-20.02 19.51-20.02 20.24-22.61 21.75-22.61 21.75-14.48 20.24-14.48ZM31.54-34.74L31.54-36.82 43.5-36.82 43.5-34.74 39.82-34.18 39.82-2.64 43.5-2.08 43.5 0 31.54 0 31.54-2.08 35.3-2.64 35.3-34.18 31.54-34.74ZM73.58-31.23L73.58-31.23Q74.24-29.54 74.24-27.39 74.24-25.24 73.57-23.49 72.9-21.73 71.63-20.46L71.63-20.46Q69.21-18.04 64.52-17.07L64.52-17.07 64.96-17.87 74.6-3.22 76.31-2.47 79.76-2.08 79.76 0 71.38 0 60.4-17.55 62.45-16.67 55.9-16.67 55.9-2.64 59.57-2.08 59.57 0 47.6 0 47.6-2.08 51.39-2.64 51.39-34.18 47.6-34.74 47.6-36.82 59.64-36.82Q71.33-36.82 73.58-31.23ZM59.88-33.86L55.9-33.86 55.9-19.31 59.52-19.31Q67.43-19.31 69.09-23.93L69.09-23.93Q69.6-25.32 69.6-26.94 69.6-28.56 69.14-29.86 68.67-31.15 67.57-32.03L67.57-32.03Q65.3-33.86 59.88-33.86L59.88-33.86ZM99.21-15.09L98.48-17.65 89.49-17.65 89.49-2.93 103.09-2.93 104.85-7.25 106.71-7.25 105.9 0 81.19 0 81.19-2.08 84.9-2.64 84.9-34.18 81.19-34.74 81.19-36.82 104.83-36.82 105.39-29.57 103.24-29.57 101.92-33.86 89.49-33.86 89.49-20.58 98.48-20.58 99.21-23.17 100.94-23.17 100.94-15.09 99.21-15.09Z" fill="#ffffff" data-fill-palette-color="primary"></path><path d="M132.54 0L132.54-2.08 135.91-2.64 132.05-12.13 117.4-12.13 113.57-2.64 117.01-2.08 117.01 0 106.54 0 106.54-2.08 110.4-2.64 123.21-34.33 122.19-36.74 126.14-38.4 140.74-2.64 144.67-2.08 144.67 0 132.54 0ZM124.75-30.76L118.55-15.09 130.98-15.09 124.75-30.76ZM159.1 0L145.99 0 145.99-2.08 149.7-2.64 149.7-34.18 145.99-34.74 145.99-36.82 158.03-36.82Q168.43-36.82 171.31-31.2L171.31-31.2Q172.38-29.13 172.38-26.21 172.38-23.29 171.42-21.04 170.45-18.8 168.55-17.24L168.55-17.24Q164.62-13.96 157.22-13.96L157.22-13.96 154.29-13.96 154.29-2.64 159.1-2.08 159.1 0ZM157.44-33.86L154.29-33.86 154.29-16.55 157.9-16.55Q162.76-16.55 165.33-19.14L165.33-19.14Q167.6-21.48 167.6-25.46L167.6-25.46Q167.6-29.57 165.42-31.59L165.42-31.59Q163.01-33.86 157.44-33.86L157.44-33.86ZM188.3 0L175.19 0 175.19-2.08 178.9-2.64 178.9-34.18 175.19-34.74 175.19-36.82 187.22-36.82Q197.62-36.82 200.5-31.2L200.5-31.2Q201.58-29.13 201.58-26.21 201.58-23.29 200.61-21.04 199.65-18.8 197.75-17.24L197.75-17.24Q193.81-13.96 186.42-13.96L186.42-13.96 183.49-13.96 183.49-2.64 188.3-2.08 188.3 0ZM186.64-33.86L183.49-33.86 183.49-16.55 187.1-16.55Q191.96-16.55 194.52-19.14L194.52-19.14Q196.79-21.48 196.79-25.46L196.79-25.46Q196.79-29.57 194.62-31.59L194.62-31.59Q192.2-33.86 186.64-33.86L186.64-33.86Z" fill="#ffffff" data-fill-palette-color="secondary"></path></g></svg></g></svg></g></svg></g></svg></g><g><svg viewBox="0 0 54.527486350573646 104.16954091591957" height="104.16954091591957" width="54.527486350573646"><g><svg xmlns="http://www.w3.org/2000/svg" xmlns:xlink="http://www.w3.org/1999/xlink" version="1.1" x="0" y="0" viewBox="19.682355880737305 3.5 35.572967529296875 67.95874786376953" enable-background="new 0 0 75 75" xml:space="preserve" height="104.16954091591957" width="54.527486350573646" class="icon-icon-0" data-fill-palette-color="accent" id="icon-0"><path d="M21.2 59.5c-1.1-2.6-4.2-12.2 3.8-24.7C36 18 31.7 3.5 31.7 3.5S46 8.8 41.7 37.5c-1 6.5-0.9 9 2 9.4 5 0.7 3.1-19.7 3.1-19.7s3.9 2 6.8 12.1c1.5 5.3 1.8 9.5 1.6 12.5-1 18.1-16.5 19.6-16.5 19.6S26.9 73 21.2 59.5z" fill="#ffffff" data-fill-palette-color="accent"></path></svg></g></svg></g></svg></g><defs></defs></svg><rect width="395.52" height="83.66836613556995" fill="none" stroke="none" visibility="hidden"></rect></g></svg></g></svg>